# xmcd
# Track frame offsets:
# 150
# 10787
# 27775
# 45632
# 59889
# 73189
# 94368
# 110238
# 125315
# 143042
# 161410
# 177453
#
# Disc length: 2513 seconds
# Revision: 0
# Processed by: cddbd v1.4PL0 Copyright (c) Steve Scherf et al.
# Submitted via: VisiTrax 2.9.5.181 - For more info visit www.synapsa.com
#
DISCID=ad09cf0c
DTITLE=Crippen, John - Diddie Wa Diddie
DYEAR=2002
DGENRE=Blues
TTITLE0=Diddie Wa Diddie
TTITLE1=Wanted Man
TTITLE2=Cocaine
TTITLE3=Nickels And Dimes
TTITLE4=Little Maggie
TTITLE5=Baby Blues
TTITLE6=Hesitation Blues
TTITLE7=My Lincoln
TTITLE8=Kincaid County Blues
TTITLE9=Hard Times Killin' Floor Blues
TTITLE10=Maintenance Man
TTITLE11=She's Just Funny That Way
EXTD=Produced and Recorded at Echo Park Studios in Bloomington, IN
EXTT0=
EXTT1=
EXTT2=
EXTT3=
EXTT4=
EXTT5=
EXTT6=
EXTT7=
EXTT8=
EXTT9=
EXTT10=
EXTT11=
PLAYORDER=
